<?xml version="1.0" encoding="UTF-8"?>
<svg width="705px" height="684px" viewBox="0 0 705 684" version="1.1" xmlns="http://www.w3.org/2000/svg" xmlns:xlink="http://www.w3.org/1999/xlink">
    <title>Kubernetes_logo_without_workmark</title>
    <g id="Page-1" stroke="none" stroke-width="1" fill="none" fill-rule="evenodd">
        <g id="Kubernetes_logo_without_workmark" transform="translate(1.000000, 1.000000)" fill-rule="nonzero">
            <path d="M348.986594,0.0601119956 C342.77321,0.373111236 336.685413,1.91365331 331.080344,4.591362 L86.736594,121.341362 C73.9256499,127.459495 64.6206375,139.030376 61.455344,152.778862 L1.174094,415.028862 C-1.63816704,427.236248 0.650104252,440.052822 7.517844,450.560112 C8.34209704,451.831508 9.22857342,453.062146 10.174094,454.247612 L179.299094,664.528862 C188.167053,675.55117 201.61257,681.966363 215.830344,681.966363 L487.049094,681.903862 C501.261551,681.91422 514.706119,675.508211 523.580344,664.497612 L692.642844,454.185112 C701.515548,443.15728 704.839869,428.721214 701.674094,414.966362 L641.299094,152.716362 C638.133801,138.967876 628.828788,127.396995 616.017844,121.278862 L371.642844,4.591362 C364.592512,1.22301687 356.802103,-0.335064792 348.986594,0.0601119956 Z" id="path3055" stroke="#FFFFFF" fill="#326CE5"></path>
            <path d="M351.407754,89.307232 C343.330794,89.307232 336.781794,96.583142 336.782754,105.557232 C336.782764,105.694962 336.810954,105.826572 336.813954,105.963482 C336.802054,107.182842 336.743154,108.651842 336.782754,109.713482 C336.975374,114.889482 338.103654,118.850972 338.782754,123.619732 C340.013034,133.826392 341.043924,142.287092 340.407754,150.150982 C339.789064,153.116382 337.604874,155.828392 335.657754,157.713482 L335.314004,163.900982 C326.537184,164.628152 317.701654,165.959722 308.876504,167.963482 C270.901894,176.585662 238.206424,196.146552 213.314004,222.557232 C211.698784,221.455302 208.872974,219.428092 208.032704,218.807232 C205.421534,219.159852 202.782494,219.965522 199.345204,217.963482 C192.800294,213.557852 186.839334,207.476552 179.626454,200.150982 C176.321474,196.646792 173.928134,193.309972 170.001454,189.932232 C169.109734,189.165162 167.748874,188.127682 166.751454,187.338482 C163.681574,184.890912 160.060754,183.614462 156.563954,183.494732 C152.068064,183.340792 147.740014,185.098582 144.907704,188.650982 C139.872494,194.966362 141.484584,204.619032 148.501454,210.213482 C148.572654,210.270182 148.648474,210.314262 148.720204,210.369732 C149.684424,211.151352 150.865164,212.152862 151.751454,212.807232 C155.918324,215.883782 159.724654,217.458682 163.876454,219.900982 C172.623454,225.302792 179.874824,229.781842 185.626454,235.182232 C187.872474,237.576402 188.265034,241.795152 188.563954,243.619732 L193.251454,247.807232 C168.158034,285.570912 156.544594,332.216692 163.407754,379.744732 L157.282754,381.525982 C155.668454,383.610592 153.387344,386.890722 151.001454,387.869732 C143.476324,390.239942 135.007214,391.110322 124.782704,392.182232 C119.982394,392.581382 115.840524,392.343182 110.751454,393.307232 C109.631374,393.519412 108.070734,393.926002 106.845204,394.213482 C106.802604,394.222482 106.762804,394.235082 106.720204,394.244682 C106.653404,394.260182 106.565644,394.292582 106.501454,394.307182 C97.881314,396.389972 92.343714,404.313182 94.126454,412.119682 C95.909614,419.928012 104.329594,424.676452 113.001454,422.807182 C113.064054,422.792882 113.154954,422.790482 113.220204,422.775982 C113.318104,422.753582 113.404294,422.706082 113.501454,422.682282 C114.710304,422.416922 116.225224,422.121682 117.282704,421.838532 C122.286044,420.498902 125.909644,418.530572 130.407704,416.807282 C140.084644,413.336512 148.099434,410.437062 155.907704,409.307282 C159.168884,409.051862 162.604814,411.319442 164.313954,412.276032 L170.688954,411.182282 C185.359134,456.665102 216.103114,493.427302 255.032704,516.494782 L252.376454,522.869782 C253.333874,525.345202 254.389864,528.694482 253.676674,531.139102 C250.837994,538.500302 245.975704,546.270072 240.438954,554.932282 C237.758104,558.934202 235.014424,562.039892 232.595204,566.619782 C232.016304,567.715672 231.279024,569.399102 230.720204,570.557282 C226.961364,578.599642 229.718564,587.862482 236.938954,591.338532 C244.204704,594.836412 253.223424,591.147192 257.126454,583.088532 C257.132454,583.077132 257.152154,583.068732 257.157654,583.057332 C257.161654,583.048332 257.153654,583.034832 257.157654,583.026132 C257.713584,581.883582 258.501184,580.381762 258.970154,579.307382 C261.042284,574.560362 261.731764,570.492322 263.188904,565.901132 C267.058524,556.180992 269.184574,545.982102 274.511484,539.627022 C275.970164,537.886792 278.348294,537.217522 280.813904,536.557382 L284.126404,530.557382 C318.064644,543.584182 356.053064,547.079842 394.001404,538.463632 C402.658374,536.498062 411.015844,533.954182 419.095154,530.901132 C420.026134,532.552462 421.756284,535.726832 422.220154,536.526132 C424.725744,537.341312 427.460594,537.762272 429.688904,541.057382 C433.674294,547.866362 436.399804,555.921542 439.720154,565.651132 C441.177534,570.242242 441.897774,574.310462 443.970154,579.057382 C444.442494,580.139332 445.226154,581.662242 445.782654,582.807382 C449.677474,590.892222 458.724774,594.594052 466.001404,591.088632 C473.220904,587.610732 475.981144,578.348732 472.220154,570.307382 C471.661264,569.149242 470.892854,567.465742 470.313904,566.369882 C467.894444,561.790122 465.151204,558.715402 462.470154,554.713632 C456.932944,546.051712 452.340474,538.855932 449.501404,531.494882 C448.314294,527.698312 449.701684,525.337142 450.626404,522.869882 C450.072624,522.235112 448.887594,518.649792 448.188904,516.963632 C488.646304,493.075472 518.487464,454.942342 532.501404,410.901132 C534.393804,411.198552 537.682944,411.780492 538.751404,411.994882 C540.950944,410.544182 542.973344,408.651362 546.938904,408.963632 C554.747224,410.093002 562.761784,412.993362 572.438904,416.463632 C576.937054,418.186692 580.560504,420.186762 585.563904,421.526132 C586.621394,421.809222 588.136284,422.073332 589.345154,422.338632 C589.442354,422.362432 589.528454,422.410032 589.626404,422.432332 C589.691704,422.446932 589.782554,422.449232 589.845154,422.463532 C598.517514,424.330482 606.938994,419.584822 608.720154,411.776032 C610.500894,403.969072 604.965854,396.044022 596.345154,393.963532 C595.091224,393.678402 593.312904,393.194152 592.095154,392.963532 C587.006034,391.999752 582.864234,392.237432 578.063904,391.838532 C567.839344,390.767152 559.370404,389.895842 551.845154,387.526032 C548.776894,386.335752 546.594124,382.684792 545.532604,381.182282 L539.626354,379.463532 C542.688614,357.309112 541.862904,334.252192 536.563854,311.182282 C531.215464,287.897572 521.763484,266.601442 509.157604,247.838532 C510.672654,246.461242 513.533794,243.927622 514.345104,243.182282 C514.582264,240.558112 514.378504,237.806752 517.095104,234.901032 C522.846444,229.500342 530.098394,225.022052 538.845104,219.619782 C542.996774,217.177262 546.834644,215.602802 551.001354,212.526032 C551.943604,211.830272 553.230254,210.728442 554.220104,209.932282 C561.235484,204.335952 562.850684,194.683862 557.813854,188.369782 C552.777024,182.055702 543.016734,181.460952 536.001354,187.057282 C535.002794,187.848132 533.647824,188.879802 532.751354,189.651032 C528.824854,193.028992 526.399904,196.365422 523.095104,199.869782 C515.882614,207.195732 509.921034,213.307552 503.376354,217.713532 C500.540344,219.364592 496.386394,218.793312 494.501304,218.682282 L488.938804,222.651032 C457.220004,189.390462 414.034144,168.125572 367.532754,163.994732 C367.402694,162.046012 367.232304,158.523562 367.189004,157.463482 C365.285294,155.641832 362.985584,154.086622 362.407754,150.150982 C361.771584,142.287092 362.833724,133.826392 364.064004,123.619732 C364.743104,118.850972 365.871384,114.889482 366.064004,109.713482 C366.107804,108.536852 366.037504,106.829472 366.032804,105.557232 C366.031844,96.583142 359.484764,89.307232 351.407804,89.307232 L351.407754,89.307232 Z M333.095254,202.744732 L328.751504,279.463482 L328.439004,279.619732 C328.147664,286.483082 322.499044,291.963482 315.564004,291.963482 C312.723194,291.963482 310.101064,291.051192 307.970254,289.494732 L307.845254,289.557232 L244.939004,244.963482 C264.272654,225.952332 289.001914,211.903092 317.501504,205.432232 C322.707494,204.250202 327.911164,203.373132 333.095254,202.744732 Z M369.751504,202.744732 C403.024974,206.837052 433.796514,221.903552 457.376504,244.994732 L394.876504,289.307232 L394.657754,289.213532 C389.110304,293.265222 381.294324,292.259922 376.970254,286.838532 C375.198934,284.617572 374.269534,282.006142 374.157754,279.369782 L374.095254,279.338582 L369.751504,202.744732 Z M222.126504,273.619732 L279.564004,324.994732 L279.501504,325.307232 C284.685874,329.814202 285.450384,337.635172 281.126504,343.057232 C279.355304,345.278282 276.984424,346.767972 274.439004,347.463482 L274.376504,347.713482 L200.751504,368.963482 C197.004224,334.698312 205.080054,301.389842 222.126504,273.619732 Z M480.282754,273.650932 C488.816854,287.483492 495.279304,302.933072 499.126504,319.682182 C502.927564,336.230462 503.881494,352.749152 502.314004,368.713432 L428.314004,347.400932 L428.251504,347.088432 C421.625004,345.277392 417.552574,338.536812 419.095254,331.775932 C419.727284,329.006312 421.197474,326.663292 423.189004,324.932182 L423.157804,324.775932 L480.282804,273.650932 L480.282754,273.650932 Z M339.626504,328.963432 L363.157754,328.963432 L377.782754,347.244682 L372.532754,370.057182 L351.407754,380.213432 L330.220254,370.025932 L324.970254,347.213432 L339.626504,328.963432 Z M415.064004,391.525932 C416.063974,391.475432 417.059584,391.565532 418.032754,391.744682 L418.157754,391.588432 L494.314004,404.463432 C483.168504,435.776532 461.841194,462.903612 433.345254,481.057182 L403.782754,409.650932 L403.876454,409.525932 C401.160844,403.215942 403.878454,395.816372 410.126454,392.807182 C411.726104,392.036772 413.397344,391.610172 415.063954,391.525932 L415.064004,391.525932 Z M287.157754,391.838432 C292.969494,391.919932 298.182374,395.953682 299.532754,401.869682 C300.164944,404.639262 299.857254,407.383432 298.814004,409.807182 L299.032754,410.088432 L269.782754,480.775932 C242.435594,463.227332 220.653484,436.951902 209.001504,404.713482 L284.501504,391.900982 L284.626504,392.057232 C285.471014,391.901822 286.327504,391.826832 287.157754,391.838482 L287.157754,391.838432 Z M350.939004,422.807232 C352.963454,422.732832 355.017654,423.148212 356.970254,424.088482 C359.529764,425.321012 361.506984,427.261672 362.751504,429.588482 L363.032754,429.588482 L400.251504,496.838482 C395.421214,498.457712 390.455414,499.841562 385.376504,500.994732 C356.911974,507.457632 328.537884,505.499402 302.845254,496.744732 L339.970254,429.619732 L340.032754,429.619732 C342.260424,425.455322 346.485224,422.970862 350.939004,422.807232 Z" id="path3059" stroke="#FFFFFF" stroke-width="0.25" fill="#FFFFFF"></path>
            <g id="xp-shield" transform="translate(252.000000, 226.000000)">
                <path d="M99,262 C158.182336,228.112486 198,164.77417 198,92.2303714 C198,65.9891162 192.78992,40.9523846 183.337837,18.0784233 C158.049497,6.47556535 129.871084,0 100.164706,0 C69.3251,0 40.1322582,6.979044 14.1101824,19.4286044 C5.00744623,41.9362509 0,66.504473 0,92.2303714 C0,164.77417 39.8176644,228.112486 99,262 Z" id="Oval-1-Copy-5" fill="#FF4D39"></path>
                <path d="M102,235 C148.072711,207.899567 179,157.769952 179,100.40939 C179,79.5230537 174.899474,59.5954403 167.460334,41.3892516 C147.557474,32.1541297 125.380019,27 102,27 L102,235 Z" id="Oval-1-Copy-6" fill="#F9796A"></path>
                <g id="enonic-main-logo" transform="translate(52.000000, 43.000000)" fill="#FFFFFF">
                    <path d="M0,10.0416533 C0,4.49001388 3.72255783,0 8.36058912,0 C12.7853776,0 16.2983692,4.082025 16.6494845,9.3068461 L16.6494845,9.46918724 C16.6494845,9.99893197 16.2634415,10.3663356 15.8075431,10.3663356 L1.68572125,10.3663356 C1.86035976,14.7345936 4.81266982,18.0412261 8.36058912,18.0412261 C10.6437579,18.0412261 12.7504499,16.6527822 13.908579,14.4077753 C14.1549112,13.9186158 14.6825034,13.8374453 15.0336187,14.080957 C15.4215,14.4077753 15.5612109,14.9802414 15.3148786,15.4694008 C13.8387236,18.2035672 11.2742949,20 8.36058912,20 C3.72255783,20 0,15.5099861 0,10.0416533 L0,10.0416533 Z M1.79050435,8.45028304 L14.8240525,8.45028304 C14.2615326,4.69294029 11.5206271,1.9587739 8.36058912,1.9587739 C5.12885744,1.9587739 2.42287961,4.65449107 1.79050435,8.45028304 L1.79050435,8.45028304 Z" id="Fill-1"></path>
                    <path d="M64.1504504,0 C60.0899774,0 56.8041237,3.68150686 56.8041237,8.13998289 L56.8041237,19.0196918 C56.8041237,19.5911815 57.2097846,20 57.688851,20 C58.169849,20 58.5755099,19.5911815 58.5755099,19.0196918 L58.5755099,8.13998289 C58.5755099,4.74529109 61.04811,1.96275685 64.1504504,1.96275685 C67.2508591,1.96275685 69.7234592,4.74529109 69.7234592,8.13998289 L69.7234592,19.0196918 C69.7234592,19.5911815 70.1291201,20 70.6101182,20 C71.0891845,20 71.4948454,19.5911815 71.4948454,19.0196918 L71.4948454,8.13998289 C71.4948454,3.68150686 68.2109235,0 64.1504504,0" id="Fill-2"></path>
                    <path d="M26.9665494,0 C22.9060764,0 19.6202227,3.68150686 19.6202227,8.13998289 L19.6202227,19.0196918 C19.6202227,19.5911815 20.0258837,20 20.50495,20 C20.9859478,20 21.3916089,19.5911815 21.3916089,19.0196918 L21.3916089,8.13998289 C21.3916089,4.74529109 23.8642089,1.96275685 26.9665494,1.96275685 C30.0669581,1.96275685 32.5395583,4.74529109 32.5395583,8.13998289 L32.5395583,19.0196918 C32.5395583,19.5911815 32.9452191,20 33.4262172,20 C33.9052833,20 34.3109444,19.5911815 34.3109444,19.0196918 L34.3109444,8.13998289 C34.3109444,3.68150686 31.0270223,0 26.9665494,0" id="Fill-3"></path>
                    <path d="M74.4329897,0.980454984 C74.4329897,0.407988892 74.84433,0 75.3320619,0 C75.8550516,0 76.2663918,0.407988892 76.2663918,0.980454984 L76.2663918,19.0216811 C76.2663918,19.5514258 75.8550516,20 75.3320619,20 C74.84433,20 74.4329897,19.5514258 74.4329897,19.0216811 L74.4329897,0.980454984" id="Fill-4"></path>
                    <path d="M79.3298969,9.96048276 C79.3298969,4.40884332 83.5410627,0 88.8050197,0 C90.9853803,0 93.0555422,0.815977784 94.6711341,2.20442167 C95.0469906,2.4906547 95.1217683,3.10157001 94.7852687,3.55014419 C94.4822221,3.9175478 93.9568102,4.0414397 93.5435651,3.71462138 C92.2270839,2.57182528 90.5721352,1.91818862 88.8050197,1.91818862 C84.5190764,1.91818862 81.1344011,5.55163944 81.1344011,9.96048276 C81.1344011,14.4483606 84.5190764,18.0412261 88.8050197,18.0412261 C90.5721352,18.0412261 92.2270839,17.3875895 93.5435651,16.2853786 C93.9568102,15.9585603 94.4822221,16.0824522 94.7852687,16.4498558 C95.1217683,16.89843 95.0469906,17.5114814 94.5963564,17.878885 C93.0555422,19.1840222 90.9853803,20 88.8050197,20 C83.5410627,20 79.3298969,15.5911567 79.3298969,9.96048276" id="Fill-5"></path>
                    <path d="M38.9750824,8.42105263 C39.5822138,4.72182729 42.3342892,1.90914043 45.5412371,1.90914043 C48.746282,1.90914043 51.4964539,4.72182729 52.1035854,8.42105263 L53.8659794,8.42105263 C53.2360091,3.71835927 49.7797377,0 45.5412371,0 C41.3350917,0 37.8502716,3.71835927 37.2164948,8.42105263 L38.9750824,8.42105263" id="Fill-6"></path>
                    <path d="M52.1076996,11.5789474 C51.5260416,15.271579 48.7660175,18.0652632 45.5421875,18.0652632 C42.3164568,18.0652632 39.5545318,15.271579 38.9747748,11.5789474 L37.2164948,11.5789474 C37.8209629,16.271579 41.3166134,19.9957895 45.5421875,19.9957895 C49.7981752,19.9957895 53.2672138,16.271579 53.8659794,11.5789474 L52.1076996,11.5789474" id="Fill-7"></path>
                </g>
                <path d="M30.3161593,163.422594 L49.3489463,120.619247 C49.6018748,120.03347 49.7283374,119.583684 49.7283374,119.269875 C49.7283374,118.956065 49.6018748,118.464439 49.3489463,117.794979 L32.529274,80.6401674 C32.1077263,79.6778195 32.1288033,78.8305476 32.592506,78.0983263 C33.0562085,77.3661053 33.7095977,77 34.5526934,77 L49.2224825,77 C50.276352,77 51.0983578,77.6485292 51.6885246,78.9456067 L62.4379392,105.556485 C62.6065583,105.974897 62.8594831,106.1841 63.1967214,106.1841 C63.5339595,106.1841 63.7868844,105.974897 63.9555036,105.556485 L74.7049181,78.9456067 C75.2950849,77.6485292 76.1170908,77 77.1709603,77 L91.8407495,77 C92.683845,77 93.3477729,77.3661053 93.8325528,78.0983263 C94.3173327,78.8305476 94.3278713,79.6778195 93.8641686,80.6401674 L77.0444965,117.920502 C76.7915678,118.589961 76.6651054,119.071128 76.6651054,119.364017 C76.6651054,119.656905 76.7915678,120.117152 77.0444965,120.74477 L96.0772835,163.422594 C96.2880573,163.882847 96.3934426,164.322174 96.3934426,164.740586 C96.3934426,165.200839 96.2669802,165.598325 96.0140515,165.933054 C95.5503491,166.644355 94.8758826,167 93.9906324,167 L78.7517566,167 C77.3606487,167 76.4543347,166.351471 76.032787,165.054393 L63.9555036,134.615063 C63.7868844,134.196651 63.5339595,133.987448 63.1967214,133.987448 C62.8594831,133.987448 62.6065583,134.196651 62.4379392,134.615063 L50.3606559,165.054393 C49.9391081,166.351471 49.0327939,167 47.6416863,167 L32.4028105,167 C31.5597149,167 30.8852485,166.623435 30.3793911,165.870293 C30.1264626,165.493722 30,165.075316 30,164.615063 C30,164.238492 30.1053855,163.841006 30.3161593,163.422594 L30.3161593,163.422594 Z M106.700234,164.426778 L106.700234,79.5732219 C106.700234,78.9037625 106.963698,78.307534 107.490632,77.7845189 C108.017567,77.2615038 108.618264,77 109.29274,77 L137.810304,77 C141.519925,77 145.029257,77.7112901 148.338408,79.1338912 C151.647558,80.5564926 154.535116,82.4916196 157.001171,84.9393305 C159.467225,87.3870416 161.416855,90.2531218 162.850117,93.5376569 C164.28338,96.8221922 165,100.305421 165,103.987448 C165,107.753157 164.28338,111.267766 162.850117,114.531381 C161.416855,117.794995 159.467225,120.650615 157.001171,123.098326 C154.535116,125.546037 151.647558,127.481164 148.338408,128.903766 C145.029257,130.326367 141.519925,131.037657 137.810304,131.037657 L126.112412,131.037657 C125.269317,131.037657 124.847775,131.456063 124.847775,132.292887 L124.847775,164.426778 C124.847775,165.096238 124.584312,165.692466 124.057377,166.215481 C123.530442,166.738496 122.929746,167 122.255269,167 L109.29274,167 C108.618264,167 108.017567,166.738496 107.490632,166.215481 C106.963698,165.692466 106.700234,165.096238 106.700234,164.426778 L106.700234,164.426778 Z M124.847775,111.707113 C124.847775,112.543937 125.269317,112.983263 126.112412,113.025105 L137.810304,113.025105 C140.297436,113.025105 142.426221,112.146452 144.196721,110.389121 C145.967222,108.63179 146.852459,106.497921 146.852459,103.987448 C146.852459,101.518816 145.967222,99.4058666 144.196721,97.6485357 C142.426221,95.8912047 140.297436,95.0125523 137.810304,95.0125523 L126.112412,95.0125523 C125.269317,95.0125523 124.847775,95.4518786 124.847775,96.330544 L124.847775,111.707113 Z" id="XP" fill="#FFFFFF"></path>
                <path d="M10,249 C63.8512204,217.860561 100,160.259705 100,94.350212 C100,70.3510088 95.2071774,47.4534143 86.512079,26.5338035 C63.2489962,15.9222933 37.3272954,10 10,10 L10,249 Z" id="Oval-1-Copy-7" fill="#FF4D39" opacity="0.150944496" transform="translate(55.000000, 129.500000) scale(-1, 1) translate(-55.000000, -129.500000) "></path>
            </g>
        </g>
    </g>
</svg>